<svg xmlns="http://www.w3.org/2000/svg" viewBox="0 0 630 602" fill="currentColor">
  <path d="M324.50 601.05c-0.40-0.25-2-0.60-3.50-0.80-1.50-0.20-3.05-0.55-3.50-0.75-0.40-0.25-2.20-0.95-4-1.55-4.95-1.70-16.85-7.75-24.50-12.45-0.40-0.25-2.80-1.70-5.35-3.25-4.80-2.90-15.85-10.35-20.65-13.95-1.50-1.15-3.65-2.65-4.80-3.45-1.10-0.75-2.45-1.75-3-2.25-0.50-0.50-2.20-1.80-3.70-2.90-1.50-1.15-3.05-2.40-3.45-2.85-0.35-0.50-0.95-0.85-1.30-0.85-0.40 0-0.75-0.20-0.85-0.40-0.05-0.20-1.15-1.15-2.40-2.10-1.25-0.95-2.35-1.85-2.50-2-0.35-0.40-9.95-8.70-13.25-11.50-8.05-6.80-24.10-22.50-34.45-33.75-4.10-4.50-7.35-7.55-9-8.50-6.35-3.70-9.65-6.95-12.30-12.20-3.50-7-3.70-12.40-0.95-29.95 1.55-9.80 1.45-10.85-1.30-15.10-4.15-6.40-4.90-8.55-4.90-14.25 0-3 0.25-5.45 0.60-6.15 0.55-1 0.45-1.35-0.70-2.65-2.85-3.45-3.45-5.65-3.45-12.95-0.05-3.70 0.15-10.70 0.40-15.55l0.40-8.75-3.65-0.65c-2.05-0.35-5.15-0.85-6.95-1.15-1.80-0.30-3.35-0.70-3.50-0.90-0.15-0.20-0.95-0.50-1.80-0.65-2-0.40-6.45-2.40-8.80-4.05l-1.85-1.25 0.85 1.85c0.45 1 2.70 5.45 4.90 9.85 4.05 7.90 4.10 8.05 4.10 11.75 0 4.75 1.50 10.30 4.25 15.60l2.05 3.95-0.65 5.10c-1.35 10.95-1.60 14.35-1.30 20.75l0.30 6.60-1.70 0c-1.35 0-1.80-0.30-2.50-1.60-0.50-0.90-1.75-3-2.80-4.65-2.50-3.80-11.50-18.70-13.30-22-0.75-1.35-1.55-2.70-1.75-3-0.20-0.25-1.45-2.50-2.80-5-1.30-2.45-2.55-4.60-2.70-4.75-0.20-0.15-0.55-0.80-0.75-1.50-0.20-0.70-0.90-2.05-1.45-3-1.80-2.90-12.35-24.90-15.50-32.25-0.95-2.15-1.10-2.60-2.95-6.75-0.65-1.50-2.05-4.90-3.05-7.50-1.05-2.60-2.10-5.20-2.35-5.75-0.75-1.60-6-15.90-6.30-17.10-0.15-0.65-0.45-1.15-0.70-1.15-0.25 0-0.45-0.45-0.45-1 0-1.30-2.10-7.70-2.60-7.90-0.20-0.10-0.40-0.60-0.40-1.15 0-0.85-1.60-6.40-2.50-8.70-0.75-1.85-2.50-8.50-2.50-9.35 0-0.50-0.20-0.90-0.40-0.90-0.25 0-0.70-1.20-0.95-2.60-0.70-3.30-1.60-6.85-2.15-8.15-0.45-1.20-2.90-11.05-3.55-14.50-0.25-1.35-0.95-4.40-1.50-6.75-0.60-2.35-1.20-5.25-1.45-6.50-0.70-3.80-1.50-8.10-2.25-11.50-0.75-3.60-1.20-6.35-2.80-16.75-0.55-3.85-1.25-8.10-1.45-9.50-1-6.05-2.70-22.90-3.45-34.65-0.30-4.20-0.60-7.80-0.75-8-0.60-0.95-0.80-35.15-0.30-47.85 0.80-19.50 1.55-28.20 3.25-38.05 0.40-2.40 0.75-4.95 0.75-5.75 0-1 0.50-1.80 1.80-2.80 0.95-0.75 3.50-2.75 5.60-4.45 3.65-2.85 12.80-9.20 13.30-9.20 0.15 0 1.25-0.65 2.45-1.50 1.25-0.80 2.40-1.50 2.55-1.50 0.20 0 1.25-0.60 2.45-1.35 2.90-1.85 22.40-11.65 23.20-11.65 0.35 0 0.65-0.20 0.65-0.45 0-0.25 0.55-0.60 1.25-0.75 0.70-0.20 2.45-0.85 3.90-1.50 4.75-2.20 7.45-3.30 8.10-3.30 0.40 0 0.75-0.15 0.85-0.35 0.05-0.25 1.40-0.80 2.90-1.35 2.45-0.80 3.70-1.30 7.25-2.85 0.55-0.25 2.45-0.90 4.25-1.45 1.80-0.60 3.70-1.25 4.25-1.50 0.55-0.25 4.70-1.60 9.25-3 4.55-1.40 8.70-2.75 9.25-3 1.25-0.50 4.70-1.40 8.10-2.15 1.45-0.25 2.65-0.70 2.65-0.95 0-0.20 0.70-0.40 1.50-0.40 0.85 0 1.50-0.20 1.50-0.45 0-0.20 1.20-0.55 2.70-0.75 1.45-0.15 3.75-0.60 5.10-1 2.70-0.80 11.95-3 16.20-3.85 1.50-0.30 4.20-0.85 6-1.25 5.20-1.10 10.95-2.25 15-2.95 14.85-2.65 17.90-3.15 29.25-4.70 4.40-0.60 9.35-1.30 11-1.55 5-0.75 25.85-2.45 36.75-3.05 11.90-0.65 47-0.35 58.75 0.45 9.10 0.65 22.40 1.90 27.25 2.55 24 3.35 30.40 4.35 40.75 6.30 2.20 0.45 5.25 1 6.75 1.25 1.50 0.25 3.65 0.65 4.75 0.95 1.10 0.25 3.80 0.85 6 1.35 11.20 2.35 37.80 9 41.25 10.35 0.40 0.15 2.45 0.75 4.50 1.35 2.05 0.60 4.20 1.25 4.75 1.50 2.05 0.90 7.50 2.50 8.35 2.50 0.50 0 0.90 0.25 0.90 0.50 0 0.30 0.25 0.50 0.60 0.50 0.55 0 8 2.60 10.15 3.55 0.55 0.25 3.05 1.20 5.50 2.15 2.50 0.95 7.65 3.10 11.50 4.80 3.85 1.70 7.90 3.45 9 3.90 1.10 0.45 2.10 0.95 2.25 1.10 0.15 0.15 1.95 1.05 4 2 2.05 0.95 3.85 1.85 4 2 0.15 0.15 1.40 0.85 2.75 1.55 10.45 5.50 22.20 12.80 26.80 16.70 1 0.80 3.05 2.50 4.60 3.70 3.20 2.50 3.15 2.25 4.80 14.55 2.80 20.60 3.70 47.20 2.55 72.75-0.75 16.40-2.45 36.60-4 47.25-3.55 24.50-4 27.05-8 46-1.80 8.55-2.80 12.85-3.80 16.20-0.40 1.30-0.70 2.85-0.70 3.35 0 0.50-0.20 1.40-0.45 2.05-0.25 0.65-0.80 2.40-1.25 3.90-0.40 1.50-1.10 4.10-1.55 5.75-0.90 3.25-3.45 11.70-4.55 15.15-0.40 1.15-0.70 2.45-0.70 2.85 0 0.40-0.20 0.75-0.50 0.75-0.25 0-0.50 0.45-0.50 1.05 0 0.90-2.80 9.75-4 12.70-0.20 0.55-0.90 2.45-1.50 4.25-0.60 1.80-1.45 3.95-1.80 4.85-0.40 0.85-0.70 1.70-0.70 1.85 0 0.15-0.40 1.25-0.95 2.45-0.50 1.15-1.75 4.35-2.80 7.10-2.25 6.10-2.85 7.50-5.70 13.90-0.85 1.90-1.55 3.55-1.55 3.70 0 0.15-0.80 2-1.80 4.10-1 2.10-2.70 5.70-3.80 8.05-2.40 5.10-11.15 22.65-12.35 24.75-0.50 0.85-1.45 2.50-2.15 3.75-0.70 1.25-2.40 4.30-3.80 6.80-1.45 2.55-2.60 4.80-2.60 5.10 0 0.30-0.20 0.60-0.40 0.70-0.50 0.20-5.60 8.80-5.60 9.45 0 0.25-0.15 0.45-0.40 0.45-0.20 0-1.15 1.30-2.10 2.90-2.55 4.30-12.75 19.75-16.40 24.85-6.50 9-12.90 17.35-21.60 28.05-12.95 15.90-37.20 40.50-55.50 56.25-2.05 1.75-4.45 3.80-5.30 4.45-0.85 0.70-3.80 3.05-6.50 5.30-21.50 17.55-47.50 34.30-64.75 41.70-3.15 1.40-6.10 2.50-6.55 2.50-0.40 0-0.90 0.15-1.10 0.35-1 1.05-12.10 2.45-13.30 1.70z"/>
</svg>